# Rhino

mtllib HexBee.mtl
usemtl Custom
v 3 1 -3
v 3 1 -1
v 4 0 -4
v 4 0 0
v 3 1 -1
v 3 3 -1
v 4 0 0
v 4 4 0
v 3 3 -1
v 3 3 -3
v 4 4 0
v 4 4 -4
v 3 3 -3
v 3 1 -3
v 4 4 -4
v 4 0 -4
v 4 0 -4
v 4 4 -4
v 4 0 0
v 4 4 0
v 3 1 -3
v 3 3 -3
v 3 1 -1
v 3 3 -1
vt 0.99853515625 0
vt 0.5 0
vt 0.99853515625 0.21504150331020355
vt 0.5 0.21504150331020355
vt 0.99853515625 0.21650634706020355
vt 0.5 0.21650634706020355
vt 0.99853515625 0.4315478503704071
vt 0.5 0.4315478503704071
vt 0.49853515625 0
vt 0 0
vt 0.49853515625 0.21650634706020355
vt 0 0.21650634706020355
vt 0.99853515625 0.68301272392272949
vt 0.5 0.68301272392272949
vt 0.99853515625 0.89805418252944946
vt 0.5 0.89805418252944946
vt 0.49853515625 0.27180719375610352
vt 0 0.27180719375610352
vt 0.49853515625 0.77180719375610352
vt 0 0.77180719375610352
vt 0.75 0.4330126941204071
vt 0.5 0.4330126941204071
vt 0.75 0.68154788017272949
vt 0.5 0.68154788017272949
vn -0.70710676908493042 -0.70710676908493042 0
vn -0.70710676908493042 -0.70710676908493042 0
vn -0.70710676908493042 -0.70710676908493042 0
vn -0.70710676908493042 -0.70710676908493042 0
vn -0.70710676908493042 0 0.70710676908493042
vn -0.70710676908493042 0 0.70710676908493042
vn -0.70710676908493042 0 0.70710676908493042
vn -0.70710676908493042 0 0.70710676908493042
vn -0.70710676908493042 0.70710676908493042 0
vn -0.70710676908493042 0.70710676908493042 0
vn -0.70710676908493042 0.70710676908493042 0
vn -0.70710676908493042 0.70710676908493042 0
vn -0.70710676908493042 0 -0.70710676908493042
vn -0.70710676908493042 0 -0.70710676908493042
vn -0.70710676908493042 0 -0.70710676908493042
vn -0.70710676908493042 0 -0.70710676908493042
vn 1 0 0
vn 1 0 0
vn 1 0 0
vn 1 0 0
vn -1 0 0
vn -1 0 0
vn -1 0 0
vn -1 0 0
f 2/2/2 1/1/1 3/3/3 4/4/4
f 6/6/6 5/5/5 7/7/7 8/8/8
f 10/10/10 9/9/9 11/11/11 12/12/12
f 14/14/14 13/13/13 15/15/15 16/16/16
f 18/18/18 20/20/20 19/19/19 17/17/17
f 22/22/22 21/21/21 23/23/23 24/24/24
usemtl Custom
v 1 1 -3
v 3 1 -3
v 0 0 -4
v 4 0 -4
v 3 1 -3
v 3 3 -3
v 4 0 -4
v 4 4 -4
v 3 3 -3
v 1 3 -3
v 4 4 -4
v 0 4 -4
v 1 3 -3
v 1 1 -3
v 0 4 -4
v 0 0 -4
v 0 0 -4
v 0 4 -4
v 4 0 -4
v 4 4 -4
v 1 1 -3
v 1 3 -3
v 3 1 -3
v 3 3 -3
vt 0.99853515625 0.21650634706020355
vt 0.5 0.21650634706020355
vt 0.99853515625 0.4315478503704071
vt 0.5 0.4315478503704071
vt 0.99853515625 0
vt 0.5 0
vt 0.99853515625 0.21504150331020355
vt 0.5 0.21504150331020355
vt 0.49853515625 0
vt 0 0
vt 0.49853515625 0.21650634706020355
vt 0 0.21650634706020355
vt 0.99853515625 0.68301272392272949
vt 0.5 0.68301272392272949
vt 0.99853515625 0.89805418252944946
vt 0.5 0.89805418252944946
vt 0.49853515625 0.27180719375610352
vt 0 0.27180719375610352
vt 0.49853515625 0.77180719375610352
vt 0 0.77180719375610352
vt 0.75 0.4330126941204071
vt 0.5 0.4330126941204071
vt 0.75 0.68154788017272949
vt 0.5 0.68154788017272949
vn 0 -0.70710676908493042 0.70710676908493042
vn 0 -0.70710676908493042 0.70710676908493042
vn 0 -0.70710676908493042 0.70710676908493042
vn 0 -0.70710676908493042 0.70710676908493042
vn 0.70710676908493042 0 0.70710676908493042
vn 0.70710676908493042 0 0.70710676908493042
vn 0.70710676908493042 0 0.70710676908493042
vn 0.70710676908493042 0 0.70710676908493042
vn 0 0.70710676908493042 0.70710676908493042
vn 0 0.70710676908493042 0.70710676908493042
vn 0 0.70710676908493042 0.70710676908493042
vn 0 0.70710676908493042 0.70710676908493042
vn -0.70710676908493042 0 0.70710676908493042
vn -0.70710676908493042 0 0.70710676908493042
vn -0.70710676908493042 0 0.70710676908493042
vn -0.70710676908493042 0 0.70710676908493042
vn 0 0 -1
vn 0 0 -1
vn 0 0 -1
vn 0 0 -1
vn 0 0 1
vn 0 0 1
vn 0 0 1
vn 0 0 1
f 26/26/26 25/25/25 27/27/27 28/28/28
f 30/30/30 29/29/29 31/31/31 32/32/32
f 34/34/34 33/33/33 35/35/35 36/36/36
f 38/38/38 37/37/37 39/39/39 40/40/40
f 42/42/42 44/44/44 43/43/43 41/41/41
f 46/46/46 45/45/45 47/47/47 48/48/48
usemtl Custom
v 1 1 -1
v 3 1 -1
v 0 0 0
v 4 0 0
v 3 1 -1
v 3 1 -3
v 4 0 0
v 4 0 -4
v 3 1 -3
v 1 1 -3
v 4 0 -4
v 0 0 -4
v 1 1 -3
v 1 1 -1
v 0 0 -4
v 0 0 0
v 0 0 0
v 0 0 -4
v 4 0 0
v 4 0 -4
v 1 1 -1
v 1 1 -3
v 3 1 -1
v 3 1 -3
vt 0.99853515625 0.21650634706020355
vt 0.5 0.21650634706020355
vt 0.99853515625 0.4315478503704071
vt 0.5 0.4315478503704071
vt 0.99853515625 0
vt 0.5 0
vt 0.99853515625 0.21504150331020355
vt 0.5 0.21504150331020355
vt 0.49853515625 0
vt 0 0
vt 0.49853515625 0.21650634706020355
vt 0 0.21650634706020355
vt 0.99853515625 0.68301272392272949
vt 0.5 0.68301272392272949
vt 0.99853515625 0.89805418252944946
vt 0.5 0.89805418252944946
vt 0.49853515625 0.27180719375610352
vt 0 0.27180719375610352
vt 0.49853515625 0.77180719375610352
vt 0 0.77180719375610352
vt 0.75 0.4330126941204071
vt 0.5 0.4330126941204071
vt 0.75 0.68154788017272949
vt 0.5 0.68154788017272949
vn 0 0.70710676908493042 0.70710676908493042
vn 0 0.70710676908493042 0.70710676908493042
vn 0 0.70710676908493042 0.70710676908493042
vn 0 0.70710676908493042 0.70710676908493042
vn 0.70710676908493042 0.70710676908493042 0
vn 0.70710676908493042 0.70710676908493042 0
vn 0.70710676908493042 0.70710676908493042 0
vn 0.70710676908493042 0.70710676908493042 0
vn 0 0.70710676908493042 -0.70710676908493042
vn 0 0.70710676908493042 -0.70710676908493042
vn 0 0.70710676908493042 -0.70710676908493042
vn 0 0.70710676908493042 -0.70710676908493042
vn -0.70710676908493042 0.70710676908493042 0
vn -0.70710676908493042 0.70710676908493042 0
vn -0.70710676908493042 0.70710676908493042 0
vn -0.70710676908493042 0.70710676908493042 0
vn 0 -1 0
vn 0 -1 0
vn 0 -1 0
vn 0 -1 0
vn 0 1 0
vn 0 1 0
vn 0 1 0
vn 0 1 0
f 50/50/50 49/49/49 51/51/51 52/52/52
f 54/54/54 53/53/53 55/55/55 56/56/56
f 58/58/58 57/57/57 59/59/59 60/60/60
f 62/62/62 61/61/61 63/63/63 64/64/64
f 66/66/66 68/68/68 67/67/67 65/65/65
f 70/70/70 69/69/69 71/71/71 72/72/72
